# xmcd
#
# Track frame offsets:
#  150
#  14617
#  26469
#  43238
#  56692
#  70787
#  89333
#  101320
#  115452
#  134760
#  147066
#  161143
#  180720
#  193232
#  206226
#  224639
#  243589
#  257298
#  284704
#
# Disc length: 4029 seconds
#
# Revision: 0
# Processed by: cddbd v1.4PL0 Copyright (c) Steve Scherf et al.
# Submitted via: AltoMP3_Maker 3.0
#
DISCID=300fbb13
DTITLE=Norah Jones - Come Away With Me
DYEAR=1900
DGENRE=
TTITLE0=Don't Know Why
TTITLE1=Seven Years
TTITLE2=Cold Cold Heart
TTITLE3=Feelin The Same Way
TTITLE4=Come Away With Me
TTITLE5=Shoot The Moon
TTITLE6=Turn Me On
TTITLE7=Lonestar
TTITLE8=I've Got To See You Again
TTITLE9=Painter Song
TTITLE10=One Flight Down
TTITLE11=Nightingale
TTITLE12=The Long Day Is Over
TTITLE13=The Nearness Of You
TTITLE14=What Am I To Do (Bonus Track)
TTITLE15=Ruel Of My Heart (Bonus Track)
TTITLE16=Cold Cold Heart (Live) (Bonus Track)
TTITLE17=I'll Be Your Baby Tonight (Bonus Track)
TTITLE18=Peace (Bonus Track)
EXTD=
EXTT0=
EXTT1=
EXTT2=
EXTT3=
EXTT4=
EXTT5=
EXTT6=
EXTT7=
EXTT8=
EXTT9=
EXTT10=
EXTT11=
EXTT12=
EXTT13=
EXTT14=
EXTT15=
EXTT16=
EXTT17=
EXTT18=
PLAYORDER=
